# File exported by Houdini 16.0.600 (www.sidefx.com)
# 16 points
# 56 vertices
# 14 primitives
# Bounds: [-0.25, -0.5, -0.0500000007] to [0.25, 0.5, 0.0500000007]
g 
v 0.25 -0.379999995 -0.0500000007
v 0.25 -0.379999995 0.0500000007
v -0.25 -0.379999995 0.0500000007
v -0.25 -0.379999995 -0.0500000007
v 0.168749988 -0.5 0.0250000004
v 0.168749988 -0.5 -0.0250000004
v -0.168749988 -0.5 -0.0250000004
v -0.168749988 -0.5 0.0250000004
v 0.168749988 0.5 -0.0250000004
v 0.168749988 0.5 0.0250000004
v -0.168749988 0.5 0.0250000004
v -0.168749988 0.5 -0.0250000004
v 0.25 0.379999995 0.0500000007
v 0.25 0.379999995 -0.0500000007
v -0.25 0.379999995 -0.0500000007
v -0.25 0.379999995 0.0500000007
vt 0.90363127 0.0921787769 0
vt 0.922835171 0 0
vt 0.961242974 0 0
vt 0.980446875 0.0921787769 0
vt 0 0.0921787769 0
vt 0.0624127239 0 0
vt 0.321665525 0 0
vt 0.384078234 0.0921787769 0
vt 0.807262599 0.0921787769 0
vt 0.826466501 0 0
vt 0.864874244 0 0
vt 0.884078145 0.0921787769 0
vt 0.4036313 0.0921787769 0
vt 0.466044009 0 0
vt 0.725296795 0 0
vt 0.787709534 0.0921787769 0
vt 0.922835171 0.768156469 0
vt 0.90363127 0.675977707 0
vt 0.980446875 0.675977707 0
vt 0.961242974 0.768156469 0
vt 0.0624127239 0.768156469 0
vt 0 0.675977707 0
vt 0.384078234 0.675977707 0
vt 0.321665525 0.768156469 0
vt 0.826466501 0.768156469 0
vt 0.807262599 0.675977707 0
vt 0.884078145 0.675977707 0
vt 0.864874244 0.768156469 0
vt 0.466044009 0.768156469 0
vt 0.4036313 0.675977707 0
vt 0.787709534 0.675977707 0
vt 0.725296795 0.768156469 0
vt 0.4036313 0.675977707 0
vt 0.4036313 0.0921787769 0
vt 0.787709534 0.0921787769 0
vt 0.787709534 0.675977707 0
vt 0.90363127 0.675977707 0
vt 0.90363127 0.0921787769 0
vt 0.980446875 0.0921787769 0
vt 0.980446875 0.675977707 0
vt 0 0.675977707 0
vt 0 0.0921787769 0
vt 0.384078234 0.0921787769 0
vt 0.384078234 0.675977707 0
vt 0.807262599 0.675977707 0
vt 0.807262599 0.0921787769 0
vt 0.884078145 0.0921787769 0
vt 0.884078145 0.675977707 0
vt 0.259252787 0.787709534 0
vt 0.259252787 0.826117337 0
vt 0 0.826117337 0
vt 0 0.787709534 0
vt 0.662884057 0.787709534 0
vt 0.662884057 0.826117337 0
vt 0.4036313 0.826117337 0
vt 0.4036313 0.787709534 0
vn 0.828047812 -0.560657382 -0
vn 0.828047872 -0.560657442 -0
vn 0.828047872 -0.560657442 -0
vn 0.828047812 -0.560657382 -0
vn -0 -0.203954235 0.978980422
vn -0 -0.203954235 0.978980362
vn -0 -0.203954235 0.978980362
vn -0 -0.203954235 0.978980422
vn -0.828047812 -0.560657382 0
vn -0.828047872 -0.560657442 -0
vn -0.828047872 -0.560657442 -0
vn -0.828047812 -0.560657382 0
vn -0 -0.203954235 -0.978980422
vn 0 -0.203954235 -0.978980362
vn 0 -0.203954235 -0.978980362
vn -0 -0.203954235 -0.978980422
vn 0.828047872 0.560657442 0
vn 0.828047812 0.560657382 -0
vn 0.828047812 0.560657382 -0
vn 0.828047872 0.560657442 0
vn -0 0.203954235 0.978980362
vn 0 0.203954235 0.978980422
vn 0 0.203954235 0.978980422
vn -0 0.203954235 0.978980362
vn -0.828047872 0.560657442 -0
vn -0.828047812 0.560657382 -0
vn -0.828047812 0.560657382 -0
vn -0.828047872 0.560657442 -0
vn -0 0.203954235 -0.978980362
vn -0 0.203954235 -0.978980422
vn -0 0.203954235 -0.978980422
vn -0 0.203954235 -0.978980362
vn -0 0 -1
vn -0 -0 -1
vn 0 -0 -1
vn -0 -0 -1
vn 1 -0 -0
vn 1 -0 -0
vn 1 -0 -0
vn 1 0 0
vn -0 -0 1
vn -0 -0 1
vn 0 0 1
vn -0 -0 1
vn -1 -0 -0
vn -1 0 -0
vn -1 -0 -0
vn -1 -0 0
vn -0 -1 -0
vn 0 -1 -0
vn -0 -1 -0
vn -0 -1 0
vn -0 1 -0
vn -0 1 -0
vn -0 1 -0
vn 0 1 0
g Fragment
f 2/1/1 5/2/2 6/3/3 1/4/4
f 3/5/5 8/6/6 5/7/7 2/8/8
f 4/9/9 7/10/10 8/11/11 3/12/12
f 1/13/13 6/14/14 7/15/15 4/16/16
f 10/17/17 13/18/18 14/19/19 9/20/20
f 11/21/21 16/22/22 13/23/23 10/24/24
f 12/25/25 15/26/26 16/27/27 11/28/28
f 9/29/29 14/30/30 15/31/31 12/32/32
f 14/33/33 1/34/34 4/35/35 15/36/36
f 13/37/37 2/38/38 1/39/39 14/40/40
f 16/41/41 3/42/42 2/43/43 13/44/44
f 15/45/45 4/46/46 3/47/47 16/48/48
f 6/49/49 5/50/50 8/51/51 7/52/52
f 10/53/53 9/54/54 12/55/55 11/56/56
